<svg width="77" height="75" viewBox="0 0 77 75" fill="none" xmlns="http://www.w3.org/2000/svg">
<path d="M76.373 28.4089L73.3478 25.094C72.5123 24.1785 71.1581 24.1785 70.3226 25.094L68.8107 26.7508L64.9473 22.5174C65.6999 19.3958 64.9954 15.9403 62.7616 13.4926L56.7125 6.8642C48.3601 -2.28807 34.8169 -2.28807 26.4631 6.8642L38.5626 13.4926V16.2391C38.5626 18.7249 39.4636 21.1097 41.0691 22.8675L47.6382 30.0657C49.872 32.5134 53.0256 33.2854 55.8743 32.4607L59.7377 36.694L58.2258 38.3508C57.3903 39.2663 57.3903 40.7502 58.2258 41.6657L61.251 44.9806C62.0865 45.8961 63.4407 45.8961 64.2762 44.9806L76.3757 31.7224C77.2085 30.8083 77.2085 29.3245 76.373 28.4089ZM38.0439 26.1824C37.5493 25.6404 37.1295 25.0413 36.7272 24.4319L2.62506 59.3198C-0.793173 62.8178 -0.885413 68.7226 2.42053 72.3466C5.72646 75.9706 11.1165 75.8695 14.3088 72.1225L46.1423 34.759C45.613 34.3327 45.0863 33.8991 44.613 33.3806L38.0439 26.1824Z" fill="white" fill-opacity="0.9"/>
</svg>
