<svg width="67" height="77" viewBox="0 0 67 77" fill="none" xmlns="http://www.w3.org/2000/svg">
<path d="M33.5 38.5C44.0734 38.5 52.6429 29.8826 52.6429 19.25C52.6429 8.61738 44.0734 0 33.5 0C22.9266 0 14.3571 8.61738 14.3571 19.25C14.3571 29.8826 22.9266 38.5 33.5 38.5ZM46.9 43.3125H44.4025C41.0824 44.8465 37.3884 45.7188 33.5 45.7188C29.6116 45.7188 25.9326 44.8465 22.5975 43.3125H20.1C9.00312 43.3125 0 52.366 0 63.525V69.7812C0 73.7666 3.2154 77 7.17857 77H59.8214C63.7846 77 67 73.7666 67 69.7812V63.525C67 52.366 57.9969 43.3125 46.9 43.3125Z" fill="white"/>
</svg>
