<svg width="21" height="23" viewBox="0 0 21 23" fill="none" xmlns="http://www.w3.org/2000/svg">
<path d="M0.745552 8.52604C0.616273 8.43421 0.537783 8.31942 0.510081 8.18167C0.482378 8.04393 0.523932 7.90159 0.634742 7.75466C1.77978 6.19354 3.21569 4.98138 4.94247 4.11817C6.66926 3.25496 8.51147 2.82336 10.4691 2.82336C12.4267 2.82336 14.2736 3.24119 16.0096 4.07684C17.7456 4.9125 19.1954 6.12008 20.3589 7.69956C20.4882 7.86486 20.5297 8.01179 20.4835 8.14035C20.4374 8.26891 20.3589 8.37911 20.2481 8.47094C20.1373 8.56277 20.008 8.6041 19.8602 8.59491C19.7125 8.58573 19.5832 8.50767 19.4724 8.36074C18.4566 6.92819 17.15 5.83081 15.5525 5.06862C13.955 4.30642 12.2605 3.92532 10.4691 3.92532C8.67769 3.92532 6.99707 4.30642 5.42727 5.06862C3.85746 5.83081 2.55544 6.92819 1.52122 8.36074C1.41041 8.52604 1.28113 8.61787 1.13339 8.63624C0.985639 8.6546 0.856361 8.61787 0.745552 8.52604ZM13.5995 22.1078C11.6788 21.6303 10.109 20.6798 8.89007 19.2565C7.67116 17.8331 7.06171 16.0929 7.06171 14.0359C7.06171 13.1176 7.39414 12.3462 8.059 11.7217C8.72386 11.0973 9.52723 10.7851 10.4691 10.7851C11.411 10.7851 12.2144 11.0973 12.8792 11.7217C13.5441 12.3462 13.8765 13.1176 13.8765 14.0359C13.8765 14.642 14.1074 15.1516 14.5691 15.5649C15.0308 15.9781 15.5756 16.1847 16.2035 16.1847C16.8314 16.1847 17.367 15.9781 17.8103 15.5649C18.2535 15.1516 18.4751 14.642 18.4751 14.0359C18.4751 11.9054 17.6902 10.1147 16.1204 8.66379C14.5506 7.21286 12.6761 6.4874 10.4968 6.4874C8.31755 6.4874 6.44302 7.21286 4.87322 8.66379C3.30341 10.1147 2.51851 11.8962 2.51851 14.0083C2.51851 14.4491 2.56006 15.0001 2.64317 15.6613C2.72628 16.3225 2.92481 17.0938 3.23877 17.9754C3.29418 18.1407 3.28956 18.2876 3.22492 18.4162C3.16028 18.5448 3.05409 18.6366 2.90634 18.6917C2.7586 18.7468 2.61547 18.7422 2.47695 18.6779C2.33844 18.6136 2.24148 18.508 2.18608 18.3611C1.90905 17.6448 1.71052 16.9331 1.59048 16.226C1.47043 15.5189 1.41041 14.7889 1.41041 14.0359C1.41041 11.5932 2.30151 9.54536 4.0837 7.89241C5.86589 6.23946 7.99436 5.41298 10.4691 5.41298C12.9623 5.41298 15.1047 6.23946 16.8961 7.89241C18.6875 9.54536 19.5832 11.5932 19.5832 14.0359C19.5832 14.9542 19.2554 15.721 18.5998 16.3362C17.9442 16.9515 17.1454 17.2591 16.2035 17.2591C15.2616 17.2591 14.4536 16.9515 13.7796 16.3362C13.1055 15.721 12.7684 14.9542 12.7684 14.0359C12.7684 13.4298 12.5422 12.9201 12.0897 12.5069C11.6372 12.0937 11.097 11.887 10.4691 11.887C9.84119 11.887 9.30099 12.0937 8.84852 12.5069C8.39604 12.9201 8.16981 13.4298 8.16981 14.0359C8.16981 15.8174 8.70077 17.305 9.7627 18.4988C10.8246 19.6926 12.1959 20.5283 13.8765 21.0058C14.0427 21.0609 14.1535 21.1528 14.2089 21.2813C14.2643 21.4099 14.2736 21.5476 14.2366 21.6946C14.1997 21.8231 14.1258 21.9333 14.015 22.0251C13.9042 22.117 13.7657 22.1445 13.5995 22.1078ZM4.34687 2.76826C4.19912 2.86009 4.05138 2.88305 3.90363 2.83713C3.75588 2.79122 3.64507 2.69479 3.5712 2.54786C3.49733 2.40094 3.47886 2.26778 3.5158 2.1484C3.55273 2.02902 3.64507 1.92342 3.79282 1.83159C4.82705 1.2806 5.90744 0.85818 7.03401 0.564322C8.16057 0.270464 9.30561 0.123535 10.4691 0.123535C11.6511 0.123535 12.8053 0.265873 13.9319 0.550548C15.0585 0.835223 16.1481 1.24387 17.2008 1.77649C17.367 1.86832 17.464 1.97851 17.4917 2.10708C17.5194 2.23564 17.5055 2.3642 17.4501 2.49277C17.3947 2.62133 17.3024 2.72234 17.1731 2.79581C17.0438 2.86927 16.8868 2.86009 16.7022 2.76826C15.7233 2.27237 14.7122 1.89128 13.6687 1.62497C12.6253 1.35866 11.5587 1.2255 10.4691 1.2255C9.39795 1.2255 8.34526 1.34947 7.31103 1.59742C6.27681 1.84536 5.28875 2.23564 4.34687 2.76826ZM7.61576 21.7221C6.52613 20.5834 5.69044 19.4217 5.10869 18.2371C4.52694 17.0525 4.23606 15.6521 4.23606 14.0359C4.23606 12.3646 4.84551 10.955 6.06442 9.80708C7.28333 8.65919 8.75156 8.08525 10.4691 8.08525C12.1867 8.08525 13.6641 8.65919 14.9015 9.80708C16.1389 10.955 16.7576 12.3646 16.7576 14.0359C16.7576 14.2012 16.7068 14.3343 16.6052 14.4353C16.5036 14.5364 16.3697 14.5869 16.2035 14.5869C16.0558 14.5869 15.9265 14.5364 15.8157 14.4353C15.7049 14.3343 15.6495 14.2012 15.6495 14.0359C15.6495 12.6584 15.137 11.5059 14.112 10.5785C13.087 9.65097 11.8727 9.18722 10.4691 9.18722C9.06552 9.18722 7.86046 9.65097 6.85394 10.5785C5.84742 11.5059 5.34416 12.6584 5.34416 14.0359C5.34416 15.5235 5.60271 16.7862 6.11983 17.8239C6.63694 18.8616 7.39414 19.9039 8.39143 20.9507C8.50224 21.0609 8.55764 21.1895 8.55764 21.3364C8.55764 21.4833 8.50224 21.6119 8.39143 21.7221C8.28062 21.8323 8.15134 21.8874 8.00359 21.8874C7.85585 21.8874 7.72657 21.8323 7.61576 21.7221ZM15.9819 19.8488C14.3382 19.8488 12.9115 19.2978 11.7019 18.1958C10.4922 17.0938 9.88736 15.7072 9.88736 14.0359C9.88736 13.889 9.93815 13.7604 10.0397 13.6502C10.1413 13.54 10.2752 13.4849 10.4414 13.4849C10.6076 13.4849 10.7415 13.54 10.8431 13.6502C10.9447 13.7604 10.9955 13.889 10.9955 14.0359C10.9955 15.4133 11.4941 16.5429 12.4914 17.4244C13.4887 18.306 14.6522 18.7468 15.9819 18.7468C16.0927 18.7468 16.2497 18.7376 16.4528 18.7192C16.656 18.7009 16.8684 18.6733 17.09 18.6366C17.2562 18.5999 17.3993 18.6228 17.5194 18.7055C17.6394 18.7881 17.7179 18.9121 17.7549 19.0774C17.7918 19.2243 17.7641 19.3529 17.6717 19.4631C17.5794 19.5733 17.4594 19.6467 17.3116 19.6835C16.9792 19.7753 16.6883 19.8258 16.439 19.835C16.1897 19.8442 16.0373 19.8488 15.9819 19.8488Z" fill="#828282"/>
</svg>
