<svg width="30" height="25" viewBox="0 0 30 25" fill="none" xmlns="http://www.w3.org/2000/svg">
<path id="Vector" d="M2.99854 24.7585C2.17354 24.7585 1.46729 24.4647 0.879785 23.8772C0.292285 23.2897 -0.00146484 22.5835 -0.00146484 21.7585V3.75848C-0.00146484 2.93348 0.292285 2.22723 0.879785 1.63973C1.46729 1.05223 2.17354 0.758484 2.99854 0.758484H26.9985C27.8235 0.758484 28.5298 1.05223 29.1173 1.63973C29.7048 2.22723 29.9985 2.93348 29.9985 3.75848V21.7585C29.9985 22.5835 29.7048 23.2897 29.1173 23.8772C28.5298 24.4647 27.8235 24.7585 26.9985 24.7585H2.99854ZM14.9985 14.2585L2.99854 6.75848V21.7585H26.9985V6.75848L14.9985 14.2585ZM14.9985 11.2585L26.9985 3.75848H2.99854L14.9985 11.2585ZM2.99854 6.75848V3.75848V21.7585V6.75848Z" fill="#828282"/>
</svg>
