<svg width="85" height="97" viewBox="0 0 85 97" fill="none" xmlns="http://www.w3.org/2000/svg">
<path d="M82.0107 90.4815H78.2832V5.01937C78.2832 2.53516 76.2806 0.521362 73.8103 0.521362H11.1889C8.71848 0.521362 6.7159 2.53516 6.7159 5.01937V90.4815H2.98843C1.75334 90.4815 0.751953 91.4885 0.751953 92.7305V96.4788H84.2472V92.7305C84.2472 91.4885 83.2458 90.4815 82.0107 90.4815ZM24.6077 14.765C24.6077 13.523 25.6091 12.516 26.8442 12.516H34.2991C35.5342 12.516 36.5356 13.523 36.5356 14.765V22.2617C36.5356 23.5037 35.5342 24.5107 34.2991 24.5107H26.8442C25.6091 24.5107 24.6077 23.5037 24.6077 22.2617V14.765ZM24.6077 32.7571C24.6077 31.5151 25.6091 30.5081 26.8442 30.5081H34.2991C35.5342 30.5081 36.5356 31.5151 36.5356 32.7571V40.2537C36.5356 41.4958 35.5342 42.5027 34.2991 42.5027H26.8442C25.6091 42.5027 24.6077 41.4958 24.6077 40.2537V32.7571ZM34.2991 60.4948H26.8442C25.6091 60.4948 24.6077 59.4878 24.6077 58.2458V50.7491C24.6077 49.5071 25.6091 48.5001 26.8442 48.5001H34.2991C35.5342 48.5001 36.5356 49.5071 36.5356 50.7491V58.2458C36.5356 59.4878 35.5342 60.4948 34.2991 60.4948ZM48.4635 90.4815H36.5356V74.7385C36.5356 73.4964 37.537 72.4895 38.7721 72.4895H46.227C47.4621 72.4895 48.4635 73.4964 48.4635 74.7385V90.4815ZM60.3914 58.2458C60.3914 59.4878 59.39 60.4948 58.1549 60.4948H50.7C49.4649 60.4948 48.4635 59.4878 48.4635 58.2458V50.7491C48.4635 49.5071 49.4649 48.5001 50.7 48.5001H58.1549C59.39 48.5001 60.3914 49.5071 60.3914 50.7491V58.2458ZM60.3914 40.2537C60.3914 41.4958 59.39 42.5027 58.1549 42.5027H50.7C49.4649 42.5027 48.4635 41.4958 48.4635 40.2537V32.7571C48.4635 31.5151 49.4649 30.5081 50.7 30.5081H58.1549C59.39 30.5081 60.3914 31.5151 60.3914 32.7571V40.2537ZM60.3914 22.2617C60.3914 23.5037 59.39 24.5107 58.1549 24.5107H50.7C49.4649 24.5107 48.4635 23.5037 48.4635 22.2617V14.765C48.4635 13.523 49.4649 12.516 50.7 12.516H58.1549C59.39 12.516 60.3914 13.523 60.3914 14.765V22.2617Z" fill="white"/>
</svg>
