<svg width="18" height="19" viewBox="0 0 18 19" fill="none" xmlns="http://www.w3.org/2000/svg">
<path d="M15.3 0.166504H2.7C1.20883 0.166504 0 1.37534 0 2.8665V15.4665C0 16.9577 1.20883 18.1665 2.7 18.1665H15.3C16.7912 18.1665 18 16.9577 18 15.4665V2.8665C18 1.37534 16.7912 0.166504 15.3 0.166504Z" fill="#1877F2"/>
<path d="M12.5016 11.768L12.9023 9.16642H10.4062V7.47892C10.4062 6.76877 10.7543 6.07267 11.8723 6.07267H13.0078V3.85783C13.0078 3.85783 11.9777 3.68205 10.9934 3.68205C8.93672 3.68205 7.59375 4.92658 7.59375 7.18361V9.16642H5.30859V11.768H7.59375V18.1664H10.4062V11.768H12.5016Z" fill="white"/>
</svg>
