<svg width="16" height="17" viewBox="0 0 16 17" fill="none" xmlns="http://www.w3.org/2000/svg">
<path d="M5.33397 8.1665C5.33397 6.6938 6.52756 5.49962 8.00032 5.49962C9.47308 5.49962 10.6673 6.6938 10.6673 8.1665C10.6673 9.63921 9.47308 10.8334 8.00032 10.8334C6.52756 10.8334 5.33397 9.63921 5.33397 8.1665ZM3.89225 8.1665C3.89225 10.4353 5.73143 12.2744 8.00032 12.2744C10.2692 12.2744 12.1084 10.4353 12.1084 8.1665C12.1084 5.8977 10.2692 4.0586 8.00032 4.0586C5.73143 4.0586 3.89225 5.8977 3.89225 8.1665ZM11.311 3.89572C11.3108 4.42591 11.7404 4.85589 12.2706 4.8561C12.8008 4.85632 13.2308 4.42668 13.2311 3.89649C13.2313 3.36629 12.8016 2.93632 12.2714 2.9361C11.7414 2.93635 11.3114 3.36578 11.311 3.89572ZM4.76819 14.6783C3.98819 14.6428 3.56424 14.5129 3.2825 14.4031C2.90898 14.2577 2.64247 14.0845 2.36227 13.8047C2.08207 13.5249 1.90862 13.2587 1.76385 12.8852C1.65402 12.6036 1.52409 12.1795 1.48864 11.3995C1.44985 10.5563 1.44211 10.303 1.44211 8.16657C1.44211 6.03018 1.45049 5.77758 1.48864 4.93361C1.52416 4.15364 1.65504 3.73041 1.76385 3.44798C1.90926 3.07447 2.08245 2.80798 2.36227 2.52778C2.64209 2.24759 2.90834 2.07415 3.2825 1.92938C3.56411 1.81956 3.98819 1.68964 4.76819 1.65418C5.61149 1.6154 5.86481 1.60766 8.00032 1.60766C10.1358 1.60766 10.3894 1.61604 11.2334 1.65418C12.0134 1.6897 12.4367 1.82058 12.7191 1.92938C13.0926 2.07415 13.3591 2.24798 13.6393 2.52778C13.9195 2.80759 14.0923 3.07447 14.2378 3.44798C14.3476 3.72958 14.4775 4.15364 14.513 4.93361C14.5518 5.77758 14.5595 6.03018 14.5595 8.16657C14.5595 10.303 14.5518 10.5556 14.513 11.3995C14.4774 12.1795 14.3469 12.6034 14.2378 12.8852C14.0923 13.2587 13.9191 13.5252 13.6393 13.8047C13.3595 14.0843 13.0926 14.2577 12.7191 14.4031C12.4375 14.5129 12.0134 14.6429 11.2334 14.6783C10.3901 14.7171 10.1368 14.7248 8.00032 14.7248C5.86385 14.7248 5.61123 14.7171 4.76819 14.6783ZM4.70195 0.214952C3.85027 0.253736 3.26829 0.388776 2.76005 0.586536C2.23369 0.79076 1.7881 1.06474 1.34284 1.50929C0.897572 1.95383 0.624281 2.4001 0.420049 2.92644C0.222281 3.43498 0.0872355 4.01662 0.0484499 4.86826C0.00902436 5.72126 0 5.99396 0 8.1665C0 10.339 0.00902436 10.6118 0.0484499 11.4647C0.0872355 12.3165 0.222281 12.898 0.420049 13.4066C0.624281 13.9326 0.897636 14.3794 1.34284 14.8237C1.78804 15.2681 2.23369 15.5417 2.76005 15.7465C3.26925 15.9442 3.85027 16.0793 4.70195 16.1181C5.55542 16.1568 5.82769 16.1665 8.00032 16.1665C10.173 16.1665 10.4457 16.1575 11.2987 16.1181C12.1504 16.0793 12.732 15.9442 13.2406 15.7465C13.7666 15.5417 14.2125 15.2683 14.6578 14.8237C15.1031 14.3792 15.3758 13.9326 15.5806 13.4066C15.7784 12.898 15.914 12.3164 15.9522 11.4647C15.991 10.6111 16 10.339 16 8.1665C16 5.99396 15.991 5.72126 15.9522 4.86826C15.9134 4.01655 15.7784 3.43466 15.5806 2.92644C15.3758 2.40042 15.1024 1.95454 14.6578 1.50929C14.2132 1.06404 13.7666 0.79076 13.2412 0.586536C12.732 0.388776 12.1504 0.253096 11.2993 0.214952C10.4463 0.176168 10.1736 0.166504 8.00096 0.166504C5.82833 0.166504 5.55542 0.175528 4.70195 0.214952Z" fill="url(#paint0_radial_293_418)"/>
<defs>
<radialGradient id="paint0_radial_293_418" cx="0" cy="0" r="1" gradientUnits="userSpaceOnUse" gradientTransform="translate(34.0125 257.376) scale(334.2)">
<stop offset="0.09" stop-color="#FA8F21"/>
<stop offset="0.78" stop-color="#D82D7E"/>
</radialGradient>
</defs>
</svg>
