<svg width="202" height="56" viewBox="0 0 202 56" fill="none" xmlns="http://www.w3.org/2000/svg">
<g clip-path="url(#clip0_422_10)">
<path d="M95.3727 23.3152C95.3727 17.5875 89.2602 12.8447 81.6624 12.5249C81.3996 12.5249 81.1368 12.5079 80.8654 12.5079H71.1425V45.804H81.6681V39.7538L91.3139 46.1351L88.3119 32.5688C92.5278 30.6728 95.3727 27.2175 95.3727 23.3152ZM81.4995 30.3021C81.2568 30.3558 81.0111 30.3983 80.7598 30.4322C80.2613 30.5041 79.7582 30.54 79.2545 30.5398V23.7227L79.2288 16.9027H79.2545C79.7052 16.9037 80.1554 16.932 80.6027 16.9876C80.9083 17.0272 81.2053 17.0782 81.4995 17.1432C85.1756 17.9243 87.912 20.5928 87.912 23.7227C87.912 26.8525 85.1699 29.5154 81.4995 30.3021ZM108.489 33.9498C107.124 31.3152 104.504 29.5125 101.517 29.5125C97.1465 29.5125 93.5475 33.3725 93.5475 38.0757V38.1549C93.5467 38.9815 93.6513 39.805 93.8589 40.6056C94.8757 44.59 98.1262 47.151 101.06 46.2908C101.077 46.2854 101.094 46.2788 101.111 46.271C102.748 45.988 103.967 44.7457 103.89 43.359C103.89 43.3449 103.89 43.3421 103.89 43.3364L100.52 43.5741L100.408 43.5882L99.2116 39.0435L98.9745 38.1153L101.522 38.0898H106.247C108.209 38.0757 109.449 35.792 108.489 33.9498ZM102.005 35.509L98.3747 35.543V35.509C98.3747 33.3668 100.014 31.6066 102.005 31.6066C103.996 31.6066 105.636 33.3668 105.636 35.509H102.005ZM120.517 40.6707C120.211 41.0988 119.808 41.4498 119.34 41.6956C118.872 41.9413 118.353 42.0749 117.823 42.0856C115.853 42.0856 114.256 40.2547 114.256 37.9965C114.256 35.7382 115.853 33.9073 117.823 33.9073C118.318 33.9136 118.805 34.0282 119.249 34.243C119.694 34.4578 120.085 34.7674 120.394 35.1496H125.007C123.979 31.7538 121.154 29.2975 117.832 29.2975C113.642 29.2975 110.24 33.1942 110.24 37.9965C110.24 42.7987 113.642 46.6954 117.832 46.6954C121.208 46.6954 124.067 44.1655 125.053 40.6763L120.517 40.6707ZM132.282 34.329H129.529C128.883 34.329 128.358 34.9628 128.358 35.7439V45.1305C128.358 45.9002 128.883 46.5454 129.529 46.5454H132.282C132.925 46.5454 133.45 45.9116 133.45 45.1305V35.7297C133.442 34.9572 132.925 34.3233 132.282 34.3233V34.329ZM132.348 29.0456H129.457C129.127 29.0464 128.811 29.1767 128.579 29.408C128.346 29.6393 128.215 29.9527 128.215 30.2794V32.3424C128.215 32.6689 128.346 32.982 128.579 33.2128C128.812 33.4437 129.128 33.5734 129.457 33.5734H132.348C132.511 33.5738 132.673 33.5422 132.825 33.4806C132.976 33.4189 133.113 33.3283 133.229 33.214C133.345 33.0997 133.437 32.9639 133.5 32.8143C133.563 32.6648 133.596 32.5044 133.596 32.3424V30.2738C133.595 29.9463 133.463 29.6325 133.229 29.4012C132.995 29.1699 132.678 29.04 132.348 29.04V29.0456ZM147.623 31.284C146.512 30.087 144.567 29.3031 142.376 29.3031C138.963 29.3031 136.152 31.2359 136.152 33.579H136.167C136.159 33.6316 136.154 33.6845 136.152 33.7375V45.7304C136.144 45.9766 136.234 46.2161 136.402 46.3972C136.57 46.5784 136.804 46.6865 137.052 46.6983H139.572C139.82 46.6865 140.053 46.5783 140.221 46.397C140.389 46.2158 140.478 45.9763 140.468 45.7304V39.2444H144.684C144.763 39.2407 144.837 39.2066 144.89 39.1495C144.944 39.0923 144.972 39.0167 144.97 38.9388V36.358C144.973 36.2793 144.945 36.2026 144.891 36.1444C144.838 36.0862 144.764 36.0511 144.684 36.0467H140.468V33.7149C140.471 33.6612 140.471 33.6073 140.468 33.5536H146.718C147.809 33.5621 148.406 32.1132 147.623 31.2784V31.284ZM159.989 14.5228H152.379V46.7832H157.075V37.2522H163.073V46.7747H167.766V22.4379L159.989 14.5228ZM162.968 31.5472H157.181V22.4011H160.037L162.959 24.6452L162.968 31.5472ZM184.39 34.3205C184.39 31.1708 181.088 28.5589 176.989 28.3778C176.849 28.3778 176.704 28.3778 176.561 28.3778H171.314V46.6813H176.995V43.3392L182.205 46.8482L180.571 39.3916C182.856 38.353 184.396 36.4485 184.396 34.3063L184.39 34.3205ZM176.989 38.2143C176.848 38.2495 176.705 38.2759 176.561 38.2936C176.273 38.3359 175.981 38.3567 175.69 38.3558V34.3063V30.2709C175.951 30.2698 176.213 30.2859 176.472 30.3191C176.646 30.3394 176.819 30.3696 176.989 30.4096C179.12 30.8737 180.703 32.4528 180.703 34.3063C180.703 36.1599 179.126 37.7389 176.995 38.2002L176.989 38.2143ZM196.764 23.0378H183.833L179.163 24.5773V26.5921H188.123V46.8624H192.853V26.578H201.811V24.682L196.764 23.0378Z" fill="white"/>
<path d="M14.7729 15.8358H0V20.5447H14.7729V15.8358Z" fill="#1450EA"/>
<path d="M15.687 29.6767H49.5801V21.5776H15.687V29.6767ZM40.854 24.4301C40.854 23.4595 41.8423 22.6586 43.0391 22.6586C44.2359 22.6586 45.2214 23.4595 45.2214 24.4301V27.41H40.854V24.4301ZM30.4684 24.4301C30.4684 23.4595 31.4539 22.6586 32.6535 22.6586C33.8532 22.6586 34.8386 23.4595 34.8386 24.4301V27.41H30.4684V24.4301ZM20.0857 24.4301C20.0857 23.4595 21.0683 22.6586 22.2679 22.6586C23.4676 22.6586 24.453 23.4595 24.453 24.4301V27.41H20.0857V24.4301Z" fill="#1450EA"/>
<path d="M15.6755 14.8058V10.994L14.6615 10.0177H23.2733C23.7132 6.27376 27.2722 3.2543 31.6995 2.88359L29.4001 6.36148H35.8726L33.5875 2.87793C38.0091 3.25713 41.5624 6.27376 41.9851 10.0261H50.6084L49.5687 11.0307V14.7945H45.2413V14.1549C45.2413 13.9455 44.81 13.7729 44.2787 13.7729C43.7475 13.7729 43.3162 13.9455 43.3162 14.1549V14.7945H37.3379V14.1549C37.3379 13.9455 36.9009 13.7729 36.3753 13.7729C35.8497 13.7729 35.4156 13.9455 35.4156 14.1549V14.7945H29.6144V14.2285C29.6144 14.0191 29.1831 13.8465 28.6518 13.8465C28.1205 13.8465 27.6949 14.0191 27.6949 14.2285V14.7945H22.2479V14.1549C22.2479 13.9455 21.8137 13.7729 21.2882 13.7729C20.7626 13.7729 20.3256 13.9455 20.3256 14.1549V14.7945L15.6755 14.8058Z" fill="#1450EA"/>
<path d="M51.3339 29.5918H64.4302C64.5403 29.5918 64.6494 29.5702 64.7511 29.5284C64.8528 29.4866 64.9452 29.4252 65.0229 29.3479C65.1007 29.2706 65.1623 29.1789 65.2042 29.078C65.2461 28.977 65.2674 28.8689 65.2671 28.7598V22.4068C65.2671 22.1869 65.1789 21.976 65.0219 21.8205C64.865 21.665 64.6521 21.5776 64.4302 21.5776H51.3339C51.1117 21.5776 50.8985 21.6649 50.7411 21.8203C50.5837 21.9757 50.4949 22.1866 50.4941 22.4068V28.7598C50.4941 28.9805 50.5826 29.1921 50.7401 29.3481C50.8976 29.5041 51.1112 29.5918 51.3339 29.5918ZM61.1968 24.9197C61.1968 23.8557 61.7681 22.9756 62.4707 22.9756C63.1734 22.9756 63.7418 23.8557 63.7418 24.9197V27.3618C63.7422 27.471 63.7208 27.5791 63.6789 27.68C63.637 27.7809 63.5754 27.8727 63.4977 27.95C63.4199 28.0273 63.3275 28.0886 63.2258 28.1304C63.1241 28.1723 63.015 28.1938 62.9049 28.1938H62.0337C61.9236 28.1938 61.8145 28.1723 61.7128 28.1304C61.611 28.0886 61.5187 28.0273 61.4409 27.95C61.3632 27.8727 61.3016 27.7809 61.2597 27.68C61.2178 27.5791 61.1964 27.471 61.1968 27.3618V24.9197ZM56.4896 24.9197C56.4896 23.8557 57.0608 22.9756 57.7663 22.9756C58.4719 22.9756 59.0346 23.8557 59.0346 24.9197V27.3618C59.0349 27.4712 59.0135 27.5796 58.9714 27.6807C58.9293 27.7818 58.8675 27.8737 58.7894 27.951C58.7114 28.0283 58.6187 28.0896 58.5166 28.1313C58.4145 28.1729 58.3052 28.1942 58.1948 28.1938H57.3379C57.2278 28.1938 57.1187 28.1723 57.017 28.1304C56.9152 28.0886 56.8229 28.0273 56.7451 27.95C56.6674 27.8727 56.6058 27.7809 56.5639 27.68C56.522 27.5791 56.5006 27.471 56.501 27.3618L56.4896 24.9197ZM51.7852 24.9197C51.7852 23.8557 52.3565 22.9756 53.0563 22.9756C53.7561 22.9756 54.3302 23.8557 54.3302 24.9197V27.3618C54.3306 27.471 54.3092 27.5791 54.2673 27.68C54.2254 27.7809 54.1638 27.8727 54.0861 27.95C54.0083 28.0273 53.9159 28.0886 53.8142 28.1304C53.7125 28.1723 53.6034 28.1938 53.4933 28.1938H52.6364C52.5262 28.1938 52.4172 28.1723 52.3155 28.1304C52.2137 28.0886 52.1213 28.0273 52.0436 27.95C51.9658 27.8727 51.9043 27.7809 51.8624 27.68C51.8205 27.5791 51.7991 27.471 51.7995 27.3618L51.7852 24.9197Z" fill="#1450EA"/>
<path d="M14.7729 14.7973H7.38932H0C0 8.25748 2.95059 2.80435 6.67809 2.18178V0.741384C6.67809 0.553753 6.75332 0.373809 6.88724 0.241133C7.02116 0.108458 7.20279 0.0339203 7.39217 0.0339203C7.58156 0.0339203 7.76319 0.108458 7.8971 0.241133C8.03102 0.373809 8.10625 0.553753 8.10625 0.741384V2.18178C11.8223 2.80152 14.7729 8.25465 14.7729 14.7973Z" fill="#1450EA"/>
<path d="M65.2728 14.7973H57.8835H50.4941C50.4941 8.25465 53.4504 2.80152 57.1751 2.18178V0.741384C57.1751 0.553753 57.2503 0.373809 57.3842 0.241133C57.5182 0.108458 57.6998 0.0339203 57.8892 0.0339203C58.0786 0.0339203 58.2602 0.108458 58.3941 0.241133C58.528 0.373809 58.6033 0.553753 58.6033 0.741384V2.18178C62.3193 2.80152 65.2728 8.25465 65.2728 14.7973Z" fill="#1450EA"/>
<path d="M65.2699 15.8358H50.4941V20.5447H65.2699V15.8358Z" fill="#1450EA"/>
<path d="M0.794064 29.6767H13.9789C14.1895 29.6767 14.3914 29.5938 14.5403 29.4462C14.6893 29.2987 14.7729 29.0986 14.7729 28.89V22.3643C14.7729 22.1557 14.6893 21.9556 14.5403 21.808C14.3914 21.6605 14.1895 21.5776 13.9789 21.5776H0.794064C0.689681 21.5772 0.586255 21.5973 0.489745 21.6367C0.393235 21.6761 0.305548 21.7341 0.231738 21.8072C0.157927 21.8803 0.099452 21.9672 0.0596805 22.0628C0.019909 22.1584 -0.000372344 22.2609 5.17497e-06 22.3643V28.89C-0.000372344 28.9934 0.019909 29.0958 0.0596805 29.1915C0.099452 29.2871 0.157927 29.374 0.231738 29.4471C0.305548 29.5202 0.393235 29.5781 0.489745 29.6175C0.586255 29.6569 0.689681 29.677 0.794064 29.6767ZM10.6998 24.9565C10.6998 23.8783 11.2711 22.9897 11.9737 22.9897C12.6764 22.9897 13.2476 23.8783 13.2476 24.9565V27.4779C13.248 27.5813 13.2277 27.6837 13.188 27.7794C13.1482 27.875 13.0897 27.9619 13.0159 28.035C12.9421 28.1081 12.8544 28.166 12.7579 28.2054C12.6614 28.2448 12.558 28.2649 12.4536 28.2646H11.4939C11.2833 28.2646 11.0813 28.1817 10.9324 28.0341C10.7835 27.8866 10.6998 27.6865 10.6998 27.4779V24.9565ZM6.1154 24.9565C6.1154 23.8783 6.68666 22.9897 7.38932 22.9897C8.09198 22.9897 8.66039 23.8783 8.66039 24.9565V27.4779C8.66076 27.581 8.64057 27.6833 8.60098 27.7787C8.56139 27.8741 8.50317 27.9609 8.42966 28.034C8.35615 28.1071 8.2688 28.1651 8.17262 28.2046C8.07644 28.2442 7.97333 28.2646 7.86918 28.2646H6.9066C6.80222 28.2649 6.69879 28.2448 6.60228 28.2054C6.50577 28.166 6.41809 28.1081 6.34428 28.035C6.27046 27.9619 6.21199 27.875 6.17222 27.7794C6.13245 27.6837 6.11217 27.5813 6.11254 27.4779L6.1154 24.9565ZM1.28821 24.9565C1.28821 23.8783 1.85947 22.9897 2.56213 22.9897C3.26479 22.9897 3.83605 23.8783 3.83605 24.9565V27.4779C3.83605 27.6865 3.75239 27.8866 3.60348 28.0341C3.45456 28.1817 3.25259 28.2646 3.04199 28.2646H2.08227C1.87167 28.2646 1.6697 28.1817 1.52078 28.0341C1.37187 27.8866 1.28821 27.6865 1.28821 27.4779V24.9565Z" fill="#1450EA"/>
<path d="M49.5773 15.8358H15.687V20.5447H49.5773V15.8358Z" fill="#1450EA"/>
<path d="M35.4251 49.4036L35.4127 49.4068V49.4036H35.4251Z" fill="#47A035"/>
<path d="M9.52014 49.5225H55.1157C49.1174 53.5324 41.0883 56 32.3136 56C23.539 56 15.5099 53.5295 9.52014 49.5225Z" fill="#53E229"/>
<path d="M59.2831 45.7927C58.3844 46.7186 57.4213 47.581 56.401 48.3735L32.6935 48.1952L8.59469 48.1528C6.44904 46.4622 4.59326 44.4392 3.09912 42.162C3.22679 41.526 3.58505 40.9583 4.10627 40.566C4.62749 40.1737 5.27562 39.9841 5.92831 40.0328C6.581 40.0816 7.19311 40.3654 7.64908 40.8306C8.10505 41.2959 8.37334 41.9104 8.40332 42.5582V42.5836C8.40332 43.4753 8.76083 44.3304 9.3972 44.9608C10.0336 45.5913 10.8967 45.9455 11.7966 45.9455C12.6966 45.9455 13.5597 45.5913 14.1961 44.9608C14.8324 44.3304 15.1899 43.4753 15.1899 42.5836C15.2171 41.9012 15.5086 41.2553 16.0041 40.7804C16.4995 40.3055 17.1606 40.038 17.85 40.0337C18.5393 40.0293 19.2038 40.2883 19.7054 40.7569C20.2069 41.2255 20.5068 41.8676 20.5427 42.5497V42.5836C20.5295 43.0331 20.6075 43.4807 20.7721 43.8998C20.9366 44.3189 21.1843 44.7011 21.5006 45.0236C21.8169 45.3462 22.1952 45.6026 22.6133 45.7777C23.0314 45.9528 23.4807 46.043 23.9346 46.043C24.3885 46.043 24.8378 45.9528 25.2559 45.7777C25.6739 45.6026 26.0523 45.3462 26.3686 45.0236C26.6848 44.7011 26.9326 44.3189 27.0971 43.8998C27.2617 43.4807 27.3396 43.0331 27.3265 42.5836C27.3137 42.2277 27.3732 41.8727 27.5016 41.54C27.63 41.2073 27.8246 40.9035 28.0738 40.6468C28.3231 40.3901 28.6219 40.1856 28.9525 40.0456C29.2831 39.9055 29.6387 39.8328 29.9983 39.8316C30.3578 39.8305 30.7139 39.901 31.0454 40.0389C31.3769 40.1769 31.6771 40.3794 31.928 40.6346C32.1789 40.8897 32.3754 41.1923 32.506 41.5242C32.6365 41.8561 32.6983 42.2106 32.6878 42.5667V42.5836C32.6746 43.0331 32.7526 43.4807 32.9172 43.8998C33.0817 44.3189 33.3294 44.7011 33.6457 45.0236C33.962 45.3462 34.3403 45.6026 34.7584 45.7777C35.1765 45.9528 35.6258 46.043 36.0797 46.043C36.5336 46.043 36.9829 45.9528 37.401 45.7777C37.819 45.6026 38.1974 45.3462 38.5137 45.0236C38.8299 44.7011 39.0777 44.3189 39.2422 43.8998C39.4067 43.4807 39.4847 43.0331 39.4716 42.5836C39.4716 41.8796 39.7538 41.2045 40.2563 40.7067C40.7588 40.2089 41.4402 39.9292 42.1508 39.9292C42.8614 39.9292 43.5429 40.2089 44.0453 40.7067C44.5478 41.2045 44.83 41.8796 44.83 42.5836C44.8169 43.0331 44.8949 43.4807 45.0594 43.8998C45.2239 44.3189 45.4717 44.7011 45.7879 45.0236C46.1042 45.3462 46.4826 45.6026 46.9007 45.7777C47.3187 45.9528 47.768 46.043 48.2219 46.043C48.6758 46.043 49.1251 45.9528 49.5432 45.7777C49.9613 45.6026 50.3397 45.3462 50.6559 45.0236C50.9722 44.7011 51.2199 44.3189 51.3845 43.8998C51.549 43.4807 51.627 43.0331 51.6138 42.5836C51.6138 41.8796 51.8961 41.2045 52.3985 40.7067C52.901 40.2089 53.5825 39.9292 54.293 39.9292C55.0036 39.9292 55.6851 40.2089 56.1876 40.7067C56.69 41.2045 56.9723 41.8796 56.9723 42.5836C56.9709 42.5892 56.9709 42.595 56.9723 42.6006C56.9761 43.3043 57.2006 43.9894 57.6145 44.5613C58.0285 45.1331 58.6115 45.5634 59.2831 45.7927Z" fill="#53E229"/>
<path d="M65.1271 34.2724C64.6044 38.2794 62.7335 42.0177 59.8343 45.2013C59.2244 45.0787 58.6758 44.7513 58.2813 44.2744C57.8868 43.7975 57.6706 43.2003 57.6692 42.5837V42.5667C57.6948 42.1095 57.6259 41.6519 57.4667 41.2221C57.3074 40.7922 57.0612 40.3991 56.7432 40.0669C56.4252 39.7346 56.042 39.4703 55.6171 39.29C55.1923 39.1097 54.7347 39.0173 54.2725 39.0185C53.8104 39.0197 53.3533 39.1143 52.9294 39.2967C52.5055 39.4791 52.1236 39.7454 51.8073 40.0793C51.4909 40.4131 51.2467 40.8074 51.0897 41.2381C50.9327 41.6687 50.8661 42.1266 50.894 42.5837C50.894 42.5837 50.894 42.6035 50.894 42.6148C50.8899 43.3203 50.603 43.9952 50.0965 44.4912C49.59 44.9871 48.9055 45.2634 48.1934 45.2593C47.4813 45.2551 46.8 44.9709 46.2994 44.4692C45.7988 43.9674 45.52 43.2891 45.5241 42.5837V42.5667C45.5373 42.1172 45.4593 41.6696 45.2948 41.2505C45.1302 40.8314 44.8825 40.4492 44.5662 40.1267C44.25 39.8041 43.8716 39.5477 43.4535 39.3726C43.0354 39.1975 42.5861 39.1073 42.1322 39.1073C41.6783 39.1073 41.229 39.1975 40.811 39.3726C40.3929 39.5477 40.0145 39.8041 39.6982 40.1267C39.382 40.4492 39.1342 40.8314 38.9697 41.2505C38.8052 41.6696 38.7272 42.1172 38.7403 42.5667V42.5978C38.7509 42.9539 38.689 43.3084 38.5585 43.6403C38.428 43.9722 38.2314 44.2747 37.9805 44.5299C37.7296 44.785 37.4295 44.9876 37.098 45.1255C36.7665 45.2635 36.4104 45.334 36.0508 45.3328C35.6913 45.3317 35.3356 45.2589 35.005 45.1189C34.6744 44.9789 34.3756 44.7744 34.1264 44.5177C33.8771 44.2609 33.6825 43.9572 33.5541 43.6244C33.4258 43.2917 33.3662 42.9368 33.379 42.5808V42.5638C33.3922 42.1143 33.3142 41.6668 33.1497 41.2477C32.9851 40.8286 32.7374 40.4464 32.4211 40.1238C32.1049 39.8013 31.7265 39.5449 31.3084 39.3698C30.8903 39.1947 30.441 39.1044 29.9871 39.1044C29.5332 39.1044 29.0839 39.1947 28.6659 39.3698C28.2478 39.5449 27.8694 39.8013 27.5531 40.1238C27.2369 40.4464 26.9891 40.8286 26.8246 41.2477C26.6601 41.6668 26.5821 42.1143 26.5952 42.5638V42.5978C26.6062 43.3018 26.3345 43.9813 25.8398 44.4868C25.3451 44.9923 24.668 45.2824 23.9574 45.2932C23.2469 45.3041 22.561 45.0349 22.0508 44.5448C21.5406 44.0547 21.2478 43.3839 21.2368 42.6799C21.2499 42.2304 21.172 41.7828 21.0074 41.3637C20.8429 40.9446 20.5951 40.5624 20.2789 40.2399C19.9626 39.9173 19.5842 39.6609 19.1662 39.4858C18.7481 39.3107 18.2988 39.2205 17.8449 39.2205C17.391 39.2205 16.9417 39.3107 16.5236 39.4858C16.1055 39.6609 15.7272 39.9173 15.4109 40.2399C15.0946 40.5624 14.8469 40.9446 14.6824 41.3637C14.5178 41.7828 14.4398 42.2304 14.453 42.6799C14.4516 42.6864 14.4516 42.6931 14.453 42.6997C14.4279 43.3883 14.1334 44.0403 13.6319 44.5177C13.1303 44.9951 12.461 45.2606 11.7655 45.2581C11.07 45.2555 10.4027 44.9851 9.90482 44.5039C9.4069 44.0228 9.11735 43.3687 9.09739 42.6799C9.10046 41.904 8.83209 41.151 8.33794 40.5491C7.8438 39.9471 7.1544 39.5334 6.38706 39.3783C5.61971 39.2231 4.82183 39.3362 4.12915 39.6983C3.43648 40.0603 2.89181 40.6489 2.58783 41.364C1.29723 39.1858 0.460047 36.7735 0.125671 34.2695L65.1271 34.2724Z" fill="#53E229"/>
<path d="M65.1757 33.4885L65.2071 33.4743C65.2328 33.1263 65.2528 32.7782 65.2556 32.4273L32.625 32.1839L0 32.1132V32.1726C0 32.6027 0.017138 33.0216 0.0485576 33.4574H65.1757V33.4885Z" fill="#53E229"/>
<path d="M71.0797 12.5702H71.1431L71.0797 12.5963V12.5702Z" fill="url(#paint0_linear_422_10)"/>
</g>
<defs>
<linearGradient id="paint0_linear_422_10" x1="71.0797" y1="12.5818" x2="71.1431" y2="12.5818" gradientUnits="userSpaceOnUse">
<stop offset="0.03" stop-color="#20274B"/>
<stop offset="0.24" stop-color="#0F314C"/>
<stop offset="0.39" stop-color="#235644"/>
<stop offset="0.63" stop-color="#47A035"/>
<stop offset="0.74" stop-color="#5FB234"/>
<stop offset="0.84" stop-color="#53AF3F"/>
<stop offset="0.94" stop-color="#2AAB60"/>
<stop offset="1" stop-color="#0EAA6E"/>
</linearGradient>
<clipPath id="clip0_422_10">
<rect width="202" height="56" fill="white"/>
</clipPath>
</defs>
</svg>
