<svg width="19" height="31" viewBox="0 0 19 31" fill="none" xmlns="http://www.w3.org/2000/svg">
<path d="M3.40242 30.2875C2.69528 30.2875 2.08992 30.0205 1.58635 29.4864C1.08278 28.9523 0.830994 28.3103 0.830994 27.5603V3.01481C0.830994 2.26481 1.08278 1.62276 1.58635 1.08867C2.08992 0.554582 2.69528 0.287537 3.40242 0.287537H16.2596C16.9667 0.287537 17.5721 0.554582 18.0756 1.08867C18.5792 1.62276 18.831 2.26481 18.831 3.01481V27.5603C18.831 28.3103 18.5792 28.9523 18.0756 29.4864C17.5721 30.0205 16.9667 30.2875 16.2596 30.2875H3.40242ZM3.40242 26.1966V27.5603H16.2596V26.1966H3.40242ZM3.40242 4.37845H16.2596V3.01481H3.40242V4.37845ZM9.83099 20.7421C8.67385 20.7421 7.54885 20.9182 6.45599 21.2705C5.36314 21.6228 4.34528 22.1284 3.40242 22.7875V23.4694H16.2596V22.7875C15.3167 22.1284 14.2989 21.6228 13.206 21.2705C12.1131 20.9182 10.9881 20.7421 9.83099 20.7421ZM9.83099 18.0148C10.9881 18.0148 12.1078 18.1569 13.1899 18.4409C14.2721 18.725 15.2953 19.1284 16.2596 19.6512V7.10572H3.40242V19.6512C4.36671 19.1284 5.38992 18.725 6.47207 18.4409C7.55421 18.1569 8.67385 18.0148 9.83099 18.0148ZM9.83099 16.6512C10.9024 16.6512 11.8131 16.2534 12.5631 15.458C13.3131 14.6625 13.6881 13.6966 13.6881 12.5603C13.6881 11.4239 13.3131 10.458 12.5631 9.66254C11.8131 8.86708 10.9024 8.46935 9.83099 8.46935C8.75957 8.46935 7.84885 8.86708 7.09885 9.66254C6.34885 10.458 5.97385 11.4239 5.97385 12.5603C5.97385 13.6966 6.34885 14.6625 7.09885 15.458C7.84885 16.2534 8.75957 16.6512 9.83099 16.6512ZM9.83099 13.9239C9.46671 13.9239 9.16135 13.7932 8.91492 13.5319C8.66849 13.2705 8.54528 12.9466 8.54528 12.5603C8.54528 12.1739 8.66849 11.85 8.91492 11.5887C9.16135 11.3273 9.46671 11.1966 9.83099 11.1966C10.1953 11.1966 10.5006 11.3273 10.7471 11.5887C10.9935 11.85 11.1167 12.1739 11.1167 12.5603C11.1167 12.9466 10.9935 13.2705 10.7471 13.5319C10.5006 13.7932 10.1953 13.9239 9.83099 13.9239ZM9.83099 23.4694H16.2596H3.40242H9.83099Z" fill="#828282"/>
</svg>
