<svg width="216" height="216" viewBox="0 0 216 216" fill="none" xmlns="http://www.w3.org/2000/svg">
<path d="M215.3 108C215.3 48.8777 167.122 0.699951 108 0.699951C48.8777 0.699951 0.700012 48.8777 0.700012 108C0.700012 139.117 14.1125 167.122 35.3579 186.758C35.3579 186.865 35.3579 186.865 35.2506 186.973C36.3236 188.046 37.6112 188.904 38.6842 189.87C39.328 190.406 39.8645 190.943 40.5083 191.372C42.4397 192.982 44.5857 194.484 46.6244 195.986C47.3755 196.522 48.0193 196.952 48.7704 197.488C50.8091 198.883 52.9551 200.171 55.2084 201.351C55.9595 201.78 56.8179 202.317 57.569 202.746C59.715 203.926 61.9683 204.999 64.3289 205.965C65.1873 206.394 66.0457 206.823 66.9041 207.145C69.2647 208.111 71.6253 208.969 73.9859 209.72C74.8443 210.042 75.7027 210.364 76.5611 210.579C79.1363 211.33 81.7115 211.974 84.2867 212.617C85.0378 212.832 85.7889 213.047 86.6473 213.154C89.6517 213.798 92.6561 214.227 95.7678 214.549C96.197 214.549 96.6262 214.656 97.0554 214.763C100.704 215.085 104.352 215.3 108 215.3C111.648 215.3 115.296 215.085 118.837 214.763C119.267 214.763 119.696 214.656 120.125 214.549C123.237 214.227 126.241 213.798 129.245 213.154C129.997 213.047 130.748 212.725 131.606 212.617C134.181 211.974 136.864 211.437 139.332 210.579C140.19 210.257 141.048 209.935 141.907 209.72C144.267 208.862 146.735 208.111 148.989 207.145C149.847 206.823 150.705 206.394 151.564 205.965C153.817 204.999 156.07 203.926 158.324 202.746C159.182 202.317 159.933 201.78 160.684 201.351C162.83 200.063 164.976 198.883 167.122 197.488C167.873 197.059 168.517 196.522 169.268 195.986C171.414 194.484 173.453 192.982 175.384 191.372C176.028 190.836 176.565 190.299 177.209 189.87C178.389 188.904 179.569 187.938 180.642 186.973C180.642 186.865 180.642 186.865 180.535 186.758C201.888 167.122 215.3 139.117 215.3 108ZM161.006 161.328C131.928 141.799 84.2867 141.799 54.9938 161.328C50.2726 164.44 46.4098 168.088 43.1908 172.058C26.8812 155.534 16.795 132.894 16.795 108C16.795 57.6763 57.6763 16.795 108 16.795C158.324 16.795 199.205 57.6763 199.205 108C199.205 132.894 189.119 155.534 172.809 172.058C169.698 168.088 165.727 164.44 161.006 161.328Z" fill="black"/>
<path d="M108 53.5955C85.7889 53.5955 67.7625 71.6219 67.7625 93.8331C67.7625 115.615 84.8232 133.319 107.464 133.963H108.429H109.18H109.395C131.07 133.212 148.13 115.615 148.238 93.8331C148.238 71.6219 130.211 53.5955 108 53.5955Z" fill="black"/>
</svg>
