<svg width="29" height="39" viewBox="0 0 29 39" fill="none" xmlns="http://www.w3.org/2000/svg">
<path id="Vector" d="M3.62427 38.696C2.62739 38.696 1.77401 38.3416 1.06411 37.6329C0.354216 36.9242 -0.000732422 36.0722 -0.000732422 35.0769V16.9817C-0.000732422 15.9865 0.354216 15.1345 1.06411 14.4257C1.77401 13.717 2.62739 13.3627 3.62427 13.3627H5.43677V9.7436C5.43677 7.24043 6.32036 5.1067 8.08755 3.34241C9.85474 1.57813 11.992 0.695984 14.4993 0.695984C17.0066 0.695984 19.1438 1.57813 20.911 3.34241C22.6782 5.1067 23.5618 7.24043 23.5618 9.7436V13.3627H25.3743C26.3711 13.3627 27.2245 13.717 27.9344 14.4257C28.6443 15.1345 28.9993 15.9865 28.9993 16.9817V35.0769C28.9993 36.0722 28.6443 36.9242 27.9344 37.6329C27.2245 38.3416 26.3711 38.696 25.3743 38.696H3.62427ZM3.62427 35.0769H25.3743V16.9817H3.62427V35.0769ZM14.4993 29.6484C15.4961 29.6484 16.3495 29.294 17.0594 28.5853C17.7693 27.8765 18.1243 27.0246 18.1243 26.0293C18.1243 25.0341 17.7693 24.1821 17.0594 23.4734C16.3495 22.7646 15.4961 22.4103 14.4993 22.4103C13.5024 22.4103 12.649 22.7646 11.9391 23.4734C11.2292 24.1821 10.8743 25.0341 10.8743 26.0293C10.8743 27.0246 11.2292 27.8765 11.9391 28.5853C12.649 29.294 13.5024 29.6484 14.4993 29.6484ZM9.06177 13.3627H19.9368V9.7436C19.9368 8.23567 19.4081 6.95392 18.3508 5.89837C17.2935 4.84281 16.0097 4.31503 14.4993 4.31503C12.9889 4.31503 11.705 4.84281 10.6477 5.89837C9.59041 6.95392 9.06177 8.23567 9.06177 9.7436V13.3627Z" fill="#828282"/>
</svg>
