<svg width="18" height="15" viewBox="0 0 18 15" fill="none" xmlns="http://www.w3.org/2000/svg">
<path d="M5.66065 14.1665C12.4534 14.1665 16.1678 8.77929 16.1678 4.10865C16.1678 3.95578 16.1678 3.80291 16.1578 3.65141C16.8805 3.15082 17.5043 2.53104 18 1.8211C17.3263 2.10713 16.6116 2.29484 15.8798 2.37797C16.6504 1.93576 17.227 1.24072 17.5024 0.422086C16.7773 0.834077 15.9841 1.12443 15.1568 1.2806C14.6001 0.71394 13.8638 0.338721 13.0619 0.213011C12.2599 0.0873006 11.437 0.218107 10.7206 0.585188C10.0041 0.952268 9.43399 1.53516 9.09848 2.24365C8.76296 2.95214 8.68074 3.74673 8.86454 4.50446C7.39627 4.43405 5.95988 4.06884 4.64863 3.43255C3.33738 2.79626 2.18058 1.9031 1.25333 0.811079C0.780601 1.58908 0.63542 2.51031 0.847344 3.38718C1.05927 4.26405 1.61236 5.03064 2.39401 5.53086C1.81036 5.51198 1.23987 5.35989 0.730038 5.08727V5.13231C0.729937 5.94756 1.02409 6.73781 1.56272 7.36931C2.10135 8.00081 2.85136 8.43478 3.68584 8.59776C3.14186 8.7396 2.57115 8.76015 2.01759 8.65782C2.25327 9.36063 2.71262 9.97531 3.33134 10.4158C3.95006 10.8564 4.69719 11.1007 5.46816 11.1146C4.15921 12.0959 2.54373 12.6275 0.881179 12.6242C0.586701 12.6243 0.292467 12.6079 0 12.575C1.6886 13.6133 3.65371 14.1644 5.66065 14.1624" fill="#1DA1F2"/>
</svg>
